<?xml version="1.0" encoding="utf-8"?>
<!-- Generator: Adobe Illustrator 22.0.1, SVG Export Plug-In . SVG Version: 6.00 Build 0)  -->
<svg version="1.1" id="Layer_1" xmlns="http://www.w3.org/2000/svg" xmlns:xlink="http://www.w3.org/1999/xlink" x="0px" y="0px"
	 viewBox="0 0 676.4 132.9" style="enable-background:new 0 0 676.4 132.9;" xml:space="preserve">
<style type="text/css">
	.st0{fill:url(#SVGID_1_);}
</style>
<linearGradient id="SVGID_1_" gradientUnits="userSpaceOnUse" x1="0.252" y1="67.6672" x2="676.1192" y2="67.6672">
	<stop  offset="0" style="stop-color:#FB3182"/>
	<stop  offset="0.4026" style="stop-color:#FB5627"/>
	<stop  offset="0.5462" style="stop-color:#ECC3CA"/>
	<stop  offset="1" style="stop-color:#082E91"/>
</linearGradient>
<path class="st0" d="M22.1,100.1C22.1,100.1,22.1,100.1,22.1,100.1c1.4,1.1,3.1,2.2,5,3.2c1.6,0.9,3.6,1.6,5.9,2.3
	c2.3,0.6,4.9,1,7.7,1c4.6,0,9.1-0.9,13.3-2.8c4.2-1.9,7.9-4.5,11.1-7.9c3.2-3.4,5.7-7.4,7.6-12.1c1.9-4.6,2.8-9.7,2.8-15.2
	c0-5.5-0.9-10.6-2.8-15.2c-1.9-4.6-4.4-8.7-7.6-12.1c-3.2-3.4-6.9-6-11.1-7.9c-4.2-1.9-8.6-2.8-13.3-2.8c-3.2,0-6.2,0.4-8.7,1.3
	c-2.6,0.9-4.8,1.8-6.6,2.8c-2.1,1.2-4,2.5-5.6,4c0,0,0,0-0.1,0c0,0-1.2-2.7-2.2-4.9c-0.6-1.4-2.1-2.4-3.6-2.4l-9.6,0
	c-2.2,0-4,1.8-4,4v92.1c0,2.4,1.9,4.3,4.3,4.3c0,0,13.2,0,17.6,0c0,0,0,0,0,0L22.1,100.1z M49,81.3c-3.1,3.3-7,4.9-11.5,4.9
	s-8.4-1.6-11.5-4.9c-3.1-3.3-4.7-7.6-4.7-12.9c0-5.3,1.6-9.6,4.7-12.9c3.2-3.4,7.8-5.2,12.4-4.9c4.1,0.2,7.6,1.9,10.6,4.9
	c3.1,3.3,4.7,7.6,4.7,12.9C53.7,73.8,52.1,78.1,49,81.3z M137.2,48.1c-1.5-3.8-3.6-7-6.4-9.8c-2.8-2.8-6-4.9-9.8-6.4
	c-3.8-1.5-7.9-2.3-12.3-2.3c-4.9,0-9.2,0.6-13,1.9c-3.8,1.2-7,3-9.6,5.2c-2.6,2.2-4.8,4.9-6.4,7.9c-0.8,1.6-1.9,3.2-2.6,5
	c-1.1,2.5,0.7,5.4,3.4,5.6c4.4,0.3,11,0.6,14.8,0.8c1.5,0.1,2.9-0.6,3.7-1.8c0.3-0.4,0.6-0.9,1-1.3c0.8-0.9,1.8-1.7,3-2.5
	c1.2-0.8,2.9-1.2,4.9-1.2c2.8,0,5.1,1,7,2.9c1.8,1.9,2.7,4.7,2.8,8.4c0,0,0,0,0,0c-8.5,0-15.6,0.6-21.2,1.9
	c-5.7,1.2-10.2,3-13.7,5.2c-3.5,2.2-5.9,4.9-7.4,7.9c-1.5,3.1-2.2,6.4-2.2,10.1c0,6.2,2.2,11.2,6.5,15.1c4.3,3.9,10.5,5.9,18.6,5.9
	c3.2,0,6.2-0.4,8.8-1.2c2.6-0.8,4.9-1.8,6.9-2.8c2.3-1.2,4.3-2.5,6.1-4c0,0,0,0,0.1,0l3.2,7.2c0,0,0,0,0,0h12.1
	c2.3,0,4.1-1.8,4.1-4.1V60.4C139.5,56,138.7,51.9,137.2,48.1z M113.8,86.5c-2.5,2.5-5.9,3.8-10,3.8c-2.8,0-5-0.7-6.6-2.1
	C95.7,86.8,95,85.1,95,83c0-1.4,0.3-2.7,0.9-3.9c0.6-1.2,1.7-2.2,3.4-3.1c1.7-0.9,4-1.5,7-2c3-0.5,6.8-0.7,11.4-0.7c0,0,0,0,0,0
	l0,3.2C117.6,80.7,116.3,84,113.8,86.5z M184,30.4c4.4,0,8.5,0.7,12.1,2.2c3.7,1.5,6.8,3.6,9.5,6.3c2.6,2.8,4.7,6.1,6.2,10
	c1.5,3.9,2.2,8.3,2.2,13.1v43.7c0,0,0,0,0,0h-21.8c0,0,0,0,0,0V66c0-4.9-1.3-8.6-3.8-11.3c-2.5-2.7-5.9-4-10-4c-4.1,0-7.4,1.4-10,4
	c-2.5,2.7-3.8,6.5-3.8,11.3v39.6c0,0,0,0,0,0h-21.8c0,0,0,0,0,0V31.3c0,0,0,0,0,0h16.1c0,0,0,0,0,0l3.2,7.2c0,0,0,0,0.1,0
	c1.7-1.5,3.7-2.8,6-4c1.9-1,4.3-1.9,7-2.8C177.8,30.9,180.8,30.4,184,30.4z M219.6,51.5h-3.3c-2.2,0-4-1.8-4-4V35.3c0-2.2,1.8-4,4-4
	h3.3c2.2,0,4-1.8,4-4v-9.8c0-2.2,1.8-4,4-4h13.8c2.2,0,4,1.8,4,4v9.8c0,2.2,1.8,4,4,4h7.3c2.2,0,4,1.8,4,4v12.2c0,2.2-1.8,4-4,4
	h-7.3c-2.2,0-4,1.8-4,4v20.3c0,3.2,0.9,5.8,2.8,7.7c1.8,1.9,4.2,2.8,7,2.8c0.9,0,1.6,0,2.3-0.1c0.6-0.1,1.2-0.1,1.8-0.2c0,0,0,0,0,0
	c0.8-0.2,1.6,0.4,1.6,1.3l0,16.7c0,0.6-0.4,1.1-0.9,1.3c-0.6,0.2-1.3,0.4-2,0.5c-2.2,0.5-4.7,0.8-7.6,0.8c-8.5,0-15.1-2.3-19.8-7
	c-4.6-4.7-7-11.5-7-20.5V55.5C223.7,53.3,221.8,51.5,219.6,51.5z M277.1,81.7c1.7-0.1,3.3,0.8,4,2.3c0.5,1.3,1.3,2.4,2.3,3.3
	c1.6,1.5,3.8,2.2,6.6,2.2c2.8,0,5-0.7,6.6-2c1.6-1.3,2.3-2.8,2.3-4.5c0-1.3-0.9-2.3-2.8-3.2c-1.9-0.8-4.2-1.6-7-2.4
	c-2.8-0.8-5.9-1.8-9.1-2.8c-3.3-1.1-6.3-2.5-9.1-4.3c-2.8-1.8-5.2-4.1-7-7c-1.9-2.9-2.8-6.6-2.8-11c0-3,0.6-5.9,1.9-8.7
	c1.3-2.8,3.2-5.2,5.6-7.2c2.4-2,5.4-3.7,8.9-4.9c3.5-1.2,7.5-1.9,11.9-1.9c9.7,0,17.1,2.2,22.2,6.5c3.7,3.2,6.4,6.9,8,11.2
	c0.9,2.5-0.8,5.2-3.5,5.4l-13.4,1c-1.5,0.1-2.9-0.5-3.6-1.8c-0.5-0.9-1.2-1.7-2.1-2.4c-1.5-1.3-3.5-2-6-2c-2.5,0-4.3,0.5-5.5,1.6
	c-1.2,1.1-1.8,2.4-1.8,4c0,1.4,0.9,2.5,2.8,3.2c1.9,0.8,4.2,1.5,7,2.3c2.8,0.8,5.9,1.8,9.1,2.8c3.3,1.1,6.3,2.5,9.1,4.3
	c2.8,1.8,5.2,4.1,7,7c1.9,2.9,2.8,6.6,2.8,11c0,3-0.7,5.9-2,8.7c-1.4,2.8-3.3,5.3-5.9,7.5c-2.6,2.2-5.7,4-9.5,5.3
	c-3.7,1.3-7.9,1.9-12.5,1.9c-10.1,0-17.8-2.2-22.9-6.6c-3.9-3.4-6.7-7.7-8.3-12.8c-0.8-2.5,0.9-5,3.5-5.2L277.1,81.7z M360.4,30.4
	c3.8,0,7,0.5,9.7,1.5c2.7,1,4.9,2.1,6.6,3.3c0.8,0.6,1.6,1.2,2.3,1.9c1.4,1.4,3.7,1.6,5.2,0.3c1-0.8,2-1.5,3.1-2.2
	c1.9-1.2,4.3-2.3,7-3.3c2.7-1,5.7-1.5,8.9-1.5c8.1,0,14.6,2.6,19.4,7.8c4.9,5.2,7.3,12.8,7.3,23v40.5c0,2.2-1.8,4-4,4h-13.8
	c-2.2,0-4-1.8-4-4V63.6c0-4.1-1.1-7.3-3.2-9.6c-2.1-2.3-4.6-3.4-7.4-3.4c-2.8,0-5.3,1.1-7.4,3.4c-2.1,2.3-3.2,5.5-3.2,9.6v38.1
	c0,2.2-1.8,4-4,4h-13.8c-2.2,0-4-1.8-4-4V63.6c0-4.1-1.1-7.3-3.2-9.6c-2.1-2.3-4.6-3.4-7.4-3.4c-2.8,0-5.3,1.1-7.4,3.4
	c-2.1,2.3-3.2,5.5-3.2,9.6v38.1c0,2.2-1.8,4-4,4h-13.8c-2.2,0-4-1.8-4-4V35.3c0-2.2,1.8-4,4-4h9.6c1.6,0,3,0.9,3.7,2.4v0
	c1,2.3,3.9,3.1,6,1.6c0.4-0.3,0.8-0.5,1.2-0.8c1.6-1,3.6-1.9,5.9-2.8C355.1,30.9,357.6,30.4,360.4,30.4z M503.1,53.2
	c-2-4.7-4.7-8.8-8.2-12.3c-3.5-3.5-7.5-6.3-12.1-8.3c-4.6-2-9.5-3-14.8-3c-5.3,0-10.2,1-14.8,3c-4.6,2-8.6,4.8-12.1,8.3
	c-3.5,3.5-6.2,7.6-8.2,12.3c-2,4.7-3,9.8-3,15.3c0,5.5,1,10.6,3,15.3c2,4.7,4.7,8.8,8.2,12.3c3.5,3.5,7.5,6.3,12.1,8.3
	c4.6,2,9.5,3,14.8,3c5.3,0,10.2-1,14.8-3c4.6-2,8.6-4.7,12.1-8.3c3.5-3.5,6.2-7.6,8.2-12.3c2-4.7,3-9.8,3-15.3
	C506.1,63,505.1,57.9,503.1,53.2z M479.6,82.1c-3.1,3.3-7,5-11.5,5c-4.5,0-8.4-1.7-11.5-5c-3.1-3.3-4.7-7.9-4.7-13.6
	c0-5.7,1.6-10.3,4.7-13.6c3.1-3.3,7-5,11.5-5c4.5,0,8.4,1.7,11.5,5c3.1,3.3,4.7,7.9,4.7,13.6C484.3,74.2,482.7,78.7,479.6,82.1z
	 M503.7,94.4c0-3.2,1.2-6.1,3.6-8.5c2.4-2.4,5.3-3.6,8.5-3.6s6.1,1.2,8.5,3.6c2.4,2.4,3.6,5.3,3.6,8.5s-1.2,6.1-3.6,8.5
	s-5.3,3.6-8.5,3.6s-6.1-1.2-8.5-3.6S503.7,97.6,503.7,94.4z M596.8,3.7H583c-2.2,0-4,1.8-4,4l0,29.1c0,0,0,0-0.1,0
	c-1.4-1.2-3-2.2-5-3.2c-1.6-0.9-3.6-1.6-5.9-2.3c-2.3-0.6-4.9-1-7.7-1c-4.6,0-9.1,0.9-13.3,2.8c-4.2,1.9-7.9,4.5-11.1,7.9
	c-3.2,3.4-5.7,7.4-7.6,12.1c-1.9,4.6-2.8,9.7-2.8,15.2c0,5.5,0.9,10.6,2.8,15.2c1.9,4.6,4.4,8.7,7.6,12.1c3.2,3.4,6.9,6,11.1,7.9
	c4.2,1.9,8.6,2.8,13.3,2.8c3.2,0,6.2-0.4,8.7-1.2c2.6-0.8,4.8-1.8,6.6-2.8c2-1.2,3.9-2.5,5.6-4c0,0,0,0,0.1,0l2.2,4.9
	c1.3,0.9,2.3,1.5,3.7,2.4h9.6c2.2,0,4-1.8,4-4v-94C600.8,5.5,599.1,3.7,596.8,3.7z M575.1,81.3c-3.1,3.3-7,4.9-11.5,4.9
	c-4.5,0-8.4-1.6-11.5-4.9c-3.1-3.3-4.7-7.6-4.7-12.9c0-5.3,1.6-9.6,4.7-12.9c3.2-3.4,7.8-5.2,12.4-4.9c4.1,0.2,7.6,1.9,10.6,4.9
	c3.1,3.3,4.7,7.6,4.7,12.9C579.8,73.8,578.2,78.1,575.1,81.3z M673.3,52.5c-1.9-4.8-4.5-8.9-7.8-12.3c-3.3-3.4-7.2-6-11.6-7.9
	c-4.4-1.8-9.2-2.8-14.2-2.8c-5.3,0-10.2,1-14.8,3c-4.6,2-8.6,4.8-12.1,8.3c-3.5,3.5-6.2,7.6-8.2,12.3c-2,4.7-3,9.8-3,15.3
	c0,5.5,1,10.6,3,15.3c2,4.7,4.7,8.8,8.1,12.3c3.4,3.5,7.3,6.3,11.8,8.3c4.5,2,9.3,3,14.3,3c4.9,0,9.2-0.6,13-1.9
	c3.8-1.3,7.2-3,10.1-5.3c2.9-2.2,5.3-4.7,7.3-7.5c1.9-2.8,3.4-5.7,4.4-8.7c0,0,0,0,0,0L651,82.2c0,0,0,0,0,0c-0.6,1-1.5,1.8-2.6,2.4
	c-0.9,0.6-2,1.2-3.5,1.7c-1.5,0.5-3.2,0.7-5.3,0.7c-4.1,0-7.5-1.2-10.1-3.6c-2.6-2.4-4.4-4.9-5.2-7.7c0,0,0,0,0,0l50.9,0
	c0,0,0,0,0,0c0.1-0.7,0.2-1.5,0.3-2.4c0.1-0.8,0.2-1.5,0.3-2.3c0.1-0.8,0.2-1.6,0.2-2.5C676.1,62.6,675.2,57.3,673.3,52.5z M655,62
	h-30.7c0,0,0,0,0,0c0.9-3.2,2.6-6,5.2-8.5c2.6-2.4,6-3.6,10.1-3.6c4.1,0,7.5,1.2,10.1,3.6C652.4,55.9,654.2,58.7,655,62
	C655.1,62,655,62,655,62z"/>
</svg>
